Coordinates
version=1
nRows=14
nColumns=40
inDegrees=yes

Units are S.I. units (second, meters, Newtons, ...)
Angles are in degrees.

endheader
time	pelvis_tilt	pelvis_list	pelvis_rotation	pelvis_tx	pelvis_ty	pelvis_tz	hip_flexion_r	hip_adduction_r	hip_rotation_r	knee_angle_r	knee_angle_r_beta	ankle_angle_r	subtalar_angle_r	mtp_angle_r	hip_flexion_l	hip_adduction_l	hip_rotation_l	knee_angle_l	knee_angle_l_beta	ankle_angle_l	subtalar_angle_l	mtp_angle_l	lumbar_extension	lumbar_bending	lumbar_rotation	arm_flex_r	arm_add_r	arm_rot_r	elbow_flex_r	pro_sup_r	wrist_flex_r	wrist_dev_r	arm_flex_l	arm_add_l	arm_rot_l	elbow_flex_l	pro_sup_l	wrist_flex_l	wrist_dev_l
     38.35000000	     -3.96448801	     -5.67858408	     -0.60183022	      0.94327647	      0.91813620	      0.54688890	     15.93179530	      4.76117570	     -8.46537570	     26.56997201	     26.56997201	     15.86251270	     -6.02930426	     -0.51681906	     22.23899370	    -14.63536051	      3.08141722	     65.29160867	     65.29160867	      6.48209879	    -19.11186077	     15.11441568	     -9.57926112	      5.84814953	      2.23214014	     18.41527096	    -14.56482712	    -10.37328441	     34.20284358	     46.05975168	      0.00000000	      0.00000000	     11.86921295	     -8.99990065	     -5.33575185	     33.30007764	     45.58707375	      0.00000000	      0.00000000
     38.36750000	     -3.56615179	     -5.64650414	     -0.04603416	      0.94261386	      0.91567966	      0.54780952	     15.99254114	      4.82916996	     -8.11996024	     28.10270471	     28.10270471	     16.65390516	     -7.63805781	     -0.61916018	     23.57324337	    -14.57334264	      3.44326731	     66.64794417	     66.64794417	      7.87944899	    -19.26717369	     16.21817884	     -9.97491339	      5.79082009	      1.78158275	     20.61682365	    -14.34564635	    -10.71281403	     35.97753592	     46.02313379	      0.00000000	      0.00000000	      9.99811517	     -8.68694957	     -5.08167779	     31.96687431	     45.54523372	      0.00000000	      0.00000000
     38.38500000	     -3.25877589	     -5.53306845	      0.52828316	      0.94192680	      0.91301415	      0.54862333	     16.16488747	      4.82583430	     -7.75105526	     29.67294248	     29.67294248	     17.44808225	     -9.30592618	     -0.73839211	     24.98038209	    -14.45040706	      3.69162338	     67.79276958	     67.79276958	      9.19294048	    -19.38488463	     17.07484719	    -10.25012209	      5.66182190	      1.45164857	     22.71362316	    -14.26076434	    -10.86346145	     37.74550573	     45.97485359	      0.00000000	      0.00000000	      8.19895349	     -8.30719255	     -4.72210727	     30.62593600	     45.47981313	      0.00000000	      0.00000000
     38.40250000	     -2.86470748	     -5.50630891	      1.13976775	      0.94133102	      0.91066176	      0.54928590	     16.07446735	      4.96561796	     -7.38423479	     30.92920515	     30.92920515	     18.17917414	    -10.96680852	     -0.53653636	     26.25880837	    -14.38983322	      3.96592698	     68.64256400	     68.64256400	     10.77767955	    -19.46635612	     18.86611741	    -10.60965367	      5.64060370	      1.09704493	     24.74476479	    -14.18549024	    -10.94960094	     40.01144544	     45.90234488	      0.00000000	      0.00000000	      6.46448194	     -7.96543880	     -4.12046172	     29.13100618	     45.38346431	      0.00000000	      0.00000000
     38.42000000	     -2.55022792	     -5.42525656	      1.79307786	      0.94065738	      0.90844456	      0.54963568	     16.02442412	      4.98561686	     -7.21814332	     32.10966263	     32.10966263	     18.87132924	    -12.31673119	     -0.37218031	     27.51058023	    -14.29742092	      4.09994139	     69.01125931	     69.01125931	     12.17193223	    -19.52828255	     20.20567663	    -10.95662185	      5.60757404	      0.89918334	     26.70334206	    -14.22727617	    -10.99471945	     42.15474798	     45.83330636	      0.00000000	      0.00000000	      4.82392531	     -7.62480025	     -3.54035274	     27.85794582	     45.28317374	      0.00000000	      0.00000000
     38.43750000	     -2.23000022	     -5.37904309	      2.47284660	      0.94007592	      0.90664734	      0.54974035	     15.78144411	      5.04952635	     -7.10216039	     32.94942921	     32.94942921	     19.54102222	    -13.46365627	     -0.04074952	     28.63800134	    -14.22806948	      4.19978033	     68.88094152	     68.88094152	     13.55290633	    -19.57783615	     21.63431731	    -11.24022561	      5.57187027	      0.66435030	     28.56662470	    -14.32064903	    -11.00685268	     44.59325988	     45.75161318	      0.00000000	      0.00000000	      3.25681806	     -7.30919337	     -2.83154249	     26.72091216	     45.15958076	      0.00000000	      0.00000000
     38.45500000	     -1.98233796	     -5.31566720	      3.16594895	      0.93939948	      0.90534450	      0.54943746	     15.51140822	      5.01693439	     -7.19908023	     33.62486600	     33.62486600	     20.55335671	    -13.98389716	      1.38298700	     29.69296585	    -14.11617663	      4.18407602	     68.17709510	     68.17709510	     14.92578668	    -19.60233160	     23.24607681	    -11.50746937	      5.58045227	      1.40761573	     29.21625020	    -15.36996291	    -11.00610927	     48.81983893	     45.61452574	      0.00000000	      0.00000000	      1.84384800	     -7.75319091	      4.28513707	     26.67163580	     44.33366773	      0.00000000	      0.00000000
     38.47250000	     -1.82679779	     -5.19520717	      3.89534643	      0.93867317	      0.90465384	      0.54873541	     15.12102769	      4.91131844	     -7.33987989	     33.83830468	     33.83830468	     20.89246287	    -14.71012372	      1.43721437	     30.59951168	    -13.91319610	      4.04168570	     66.76022136	     66.76022136	     15.70655929	    -19.62390543	     23.39576430	    -11.64228052	      5.51507207	      1.06966839	     31.31149570	    -15.43960104	    -11.12799096	     50.63177639	     45.56603707	      0.00000000	      0.00000000	      0.27653226	     -7.48768745	      4.48842506	     26.03637651	     44.29562924	      0.00000000	      0.00000000
     38.49000000	     -1.82848785	     -5.06491102	      4.64091081	      0.93783304	      0.90454215	      0.54763770	     14.71702326	      4.73441759	     -7.63151178	     33.70780258	     33.70780258	     21.15486919	    -15.13725116	      1.61967280	     31.48519580	    -13.56849169	      3.90684795	     64.75609429	     64.75609429	     16.31748588	    -19.62620171	     23.57912217	    -11.63608553	      5.46946331	      0.83393210	     33.04907796	    -15.67672285	    -11.20705686	     53.19667416	     45.48815832	      0.00000000	      0.00000000	     -1.27692556	     -7.27160178	      4.83946616	     25.86001566	     44.23968401	      0.00000000	      0.00000000
     38.50750000	     -1.89532608	     -4.84957288	      5.35111775	      0.93691742	      0.90513876	      0.54617254	     14.21985165	      4.42803255	     -7.97273389	     33.28884782	     33.28884782	     21.30491406	    -15.31587837	      1.87553764	     32.13192380	    -13.02982361	      3.69652489	     62.10123617	     62.10123617	     16.67669090	    -19.61206925	     23.26493067	    -11.67250907	      5.29486776	      0.99496231	     34.06862990	    -16.42526602	    -11.24948768	     57.21050875	     45.36214453	      0.00000000	      0.00000000	     -2.75906417	     -7.24217945	      5.90387556	     26.48715181	     44.10709373	      0.00000000	      0.00000000
     38.52500000	     -2.03958936	     -4.58212357	      6.03871661	      0.93586869	      0.90650616	      0.54437051	     13.60256670	      4.03586552	     -8.40263091	     32.49061532	     32.49061532	     21.26893536	    -15.32516977	      2.03940576	     32.58011951	    -12.27976365	      3.55168017	     58.86947056	     58.86947056	     16.80974982	    -19.57302406	     23.12669854	    -11.58888420	      5.07113308	      0.72935988	     36.06904622	    -16.60912937	    -11.38997845	     58.99754904	     45.31746774	      0.00000000	      0.00000000	     -4.00290675	     -7.06920049	      6.23411710	     26.11294314	     44.04698306	      0.00000000	      0.00000000
     38.54250000	     -2.40175311	     -4.31223775	      6.70043117	      0.93468903	      0.90804649	      0.54222006	     13.09620577	      3.57404659	     -8.93029010	     31.45698148	     31.45698148	     21.04173199	    -15.11497925	      1.78367660	     32.97211329	    -11.36246033	      3.52787676	     55.10211704	     55.10211704	     16.11156907	    -19.50844140	     21.10345668	    -11.39109226	      4.85226497	      0.87029991	     37.09099864	    -17.34438670	    -11.54817497	     63.21403640	     45.19879117	      0.00000000	      0.00000000	     -5.38128027	     -7.16949089	      7.54371024	     27.12398895	     43.87309188	      0.00000000	      0.00000000
     38.56000000	     -2.81581127	     -3.98071821	      7.29932735	      0.93345556	      0.91009448	      0.53983536	     12.49658011	      3.02166935	     -9.52442698	     30.16618870	     30.16618870	     20.67703395	    -14.69651851	      1.45521305	     33.09325353	    -10.25899314	      3.64480364	     50.85967753	     50.85967753	     15.12377401	    -19.38618578	     19.14897454	    -11.15119357	      4.53807864	      0.88928652	     38.48322605	    -17.85220895	    -11.75805581	     66.48415142	     45.12338320	      0.00000000	      0.00000000	     -6.57151524	     -7.29773991	      9.03558247	     27.68928881	     43.69946982	      0.00000000	      0.00000000
     38.57750000	     -3.30704951	     -3.63351116	      7.82379358	      0.93219434	      0.91237489	      0.53722031	     11.86038543	      2.48837494	     -9.99461721	     28.66146881	     28.66146881	     20.35796012	    -14.26261138	      1.70533866	     33.08139105	     -8.98589761	      4.10504215	     46.43251170	     46.43251170	     14.52589464	    -19.12999142	     19.09131930	    -10.79777218	      4.15885966	      0.75785475	     40.46218181	    -18.12412379	    -11.86854092	     68.07686252	     45.08594834	      0.00000000	      0.00000000	     -7.47969072	     -7.17952960	      9.29753873	     27.55492519	     43.65689213	      0.00000000	      0.00000000
